<svg xmlns="http://www.w3.org/2000/svg" width="302.154" height="91.693" viewBox="0 0 302.154 91.693"><defs><style>.a{fill:none;}.b{fill:#78d2ff;}.c{fill:#0079bf;}</style></defs><g transform="translate(-0.001 -0.004)"><g transform="translate(0.001 0.004)"><g transform="translate(0 1.419)"><path class="a" d="M18.681,18.663l.18.194C18.8,18.8,18.739,18.729,18.681,18.663Z" transform="translate(-1.851 -3.271)"/><path class="b" d="M73.889,74c-1.11-1.27-1.759-1.242-3.063-.08a37.49,37.49,0,0,1-49.877.21c-1.379-1.21-1.72-1.941.208-3.5a52.278,52.278,0,0,0,6.9-6.871c1.374-1.622,1.941-1.825,3.361-.644a22.448,22.448,0,0,0,28.5.375c1.611-1.273,1.5-1.96.135-3.313C50.467,50.686,40.983,41.1,31.388,31.622c-1.3-1.283-1.184-1.885.139-2.987a22.476,22.476,0,0,1,28.672.17c1.226,1.035,1.873,1.055,2.959-.11a103.554,103.554,0,0,1,7.409-7.382c1.826-1.6,1.574-2.639-.245-3.808-.387-.25-.712-.6-1.075-.886a37.369,37.369,0,0,0-48.6,1.561c-1.1,1-1.688,1.136-2.712-.023-.141-.16-.467-.507-.925-.991l-.18-.194c-.784-.822-1.9-1.982-3.226-3.352C10.187,10.092,5.458,5.242,1.878,1.579A5.57,5.57,0,0,0,0,5.736v59.6a26.6,26.6,0,0,0,26.52,26.519h59.6a5.575,5.575,0,0,0,4.454-2.239C86.8,86.128,81.8,81.5,78.24,78.171,75.944,76.023,74.25,74.409,73.889,74Z" transform="translate(-0.001 -1.579)"/></g><g transform="translate(1.873)"><path class="a" d="M18.68,18.663l.18.194C18.8,18.8,18.738,18.729,18.68,18.663Z" transform="translate(-3.724 -1.851)"/><path class="c" d="M2.082,1.425c3.581,3.66,8.309,8.513,11.724,12.042,1.324,1.368,2.443,2.53,3.226,3.352l.18.194c.459.482.784.829.925.991,1.024,1.159,1.609,1.024,2.712.023a37.369,37.369,0,0,1,48.6-1.561,13.2,13.2,0,0,0,1.076.886c1.818,1.171,2.072,2.209.244,3.808a103.181,103.181,0,0,0-7.409,7.382c-1.081,1.165-1.732,1.145-2.959.11a22.476,22.476,0,0,0-28.672-.17c-1.324,1.1-1.442,1.7-.14,2.987,9.6,9.476,19.079,19.064,28.668,28.547,1.369,1.351,1.476,2.04-.135,3.313a22.448,22.448,0,0,1-28.5-.375c-1.392-1.158-1.964-.986-3.28.55a59.052,59.052,0,0,1-7.081,7.048c-1.815,1.506-1.461,2.233-.107,3.424a37.49,37.49,0,0,0,49.877-.21c1.3-1.161,1.95-1.19,3.063.08.36.413,2.055,2.026,4.351,4.177C82,81.356,87,85.98,90.776,89.465h0A5.542,5.542,0,0,0,91.9,86.122V32.05A32.14,32.14,0,0,0,59.857,0H5.785a5.549,5.549,0,0,0-3.7,1.424Z" transform="translate(-2.08 -0.004)"/></g></g><g transform="translate(104.791 32.562)"><path class="b" d="M328.1,58.208a10.9,10.9,0,0,1-8.486,2.193,8.253,8.253,0,0,1-6.262-4.313,8.376,8.376,0,0,1-1.021-4.4c-.008-4.681.014-9.361-.021-14.041-.005-.737.243-.9.917-.864a19.058,19.058,0,0,0,2.7,0c.86-.071,1.14.164,1.127,1.081-.053,4.312-.023,8.625-.023,12.938a8.823,8.823,0,0,0,.252,2.269c.973,3.675,4.853,4.1,7.625,2.484a6.641,6.641,0,0,0,3.429-6.182c-.018-3.874.014-7.756-.021-11.634-.006-.736.165-1.01.94-.958a30.572,30.572,0,0,0,3.108.006c.535-.018.678.18.677.692-.022,7.722.022,15.446-.058,23.169-.036,3.481-2.7,6.653-6.346,8a15.6,15.6,0,0,1-6.328.739,14.519,14.519,0,0,1-8.019-2.709c-.188-.138-.44-.111-.214-.46a21.633,21.633,0,0,0,1.712-3.062c.28-.644.726-.441,1.2-.151a13,13,0,0,0,7.227,2.04,6.183,6.183,0,0,0,5.727-3.253C328.558,60.665,328.055,59.447,328.1,58.208Z" transform="translate(-135.682 -36.203)"/><path class="b" d="M279.428,38.7c.1-1.952.1-1.959,2.064-1.948.9.005,2.082-.292,2.613.161.617.53.193,1.754.2,2.673.019,6.414-.016,12.828.038,19.241.008,1.008-.286,1.25-1.217,1.16a12.559,12.559,0,0,0-2.6,0c-.936.106-1.177-.27-1.05-1.1a4.678,4.678,0,0,0-.031-.787c-1.142.631-2.207,1.208-3.261,1.77a6.014,6.014,0,0,1-2.312.473,11.283,11.283,0,0,1-6.625-.881,11.113,11.113,0,0,1-3.977-3.526,10.977,10.977,0,0,1-2.188-5.6,14.392,14.392,0,0,1,1.362-8.124,10.331,10.331,0,0,1,5.93-5.324,11.959,11.959,0,0,1,8.591.344A21.9,21.9,0,0,1,279.428,38.7Zm.469,9.512a9.728,9.728,0,0,0-.213-2.238,6.905,6.905,0,0,0-5.316-5.474,6.635,6.635,0,0,0-7.165,3.032,9.984,9.984,0,0,0,.173,9.97,6.8,6.8,0,0,0,11.1.047A8.471,8.471,0,0,0,279.9,48.209Z" transform="translate(-130.63 -36.151)"/><path class="c" d="M194.144,38.7c.1-1.952.1-1.959,2.064-1.948.9.005,2.083-.292,2.613.161.618.53.194,1.754.2,2.673.019,6.414-.016,12.828.038,19.241.009,1.008-.285,1.25-1.217,1.16a12.55,12.55,0,0,0-2.6,0c-.937.106-1.178-.27-1.051-1.1a4.586,4.586,0,0,0-.029-.787c-1.143.631-2.207,1.208-3.262,1.77a6.01,6.01,0,0,1-2.312.473,11.267,11.267,0,0,1-6.624-.881,11.12,11.12,0,0,1-3.977-3.526,10.98,10.98,0,0,1-2.188-5.6,14.4,14.4,0,0,1,1.362-8.124,10.334,10.334,0,0,1,5.93-5.324,11.959,11.959,0,0,1,8.591.344A21.879,21.879,0,0,1,194.144,38.7Zm.469,9.512a9.727,9.727,0,0,0-.212-2.238,6.905,6.905,0,0,0-5.316-5.474,6.633,6.633,0,0,0-7.164,3.032,9.984,9.984,0,0,0,.172,9.97,6.8,6.8,0,0,0,11.1.047A8.47,8.47,0,0,0,194.613,48.209Z" transform="translate(-122.186 -36.151)"/><path class="b" d="M254.7,55.632a10.136,10.136,0,0,1-7.327,4.616,13.65,13.65,0,0,1-8.273-.9,11.856,11.856,0,0,1-5.844-6.339,12.232,12.232,0,0,1,.244-10.147c2.348-5.046,6.929-7.323,12.667-6.435A10.9,10.9,0,0,1,255,45.857c.148,1.1.078,2.192.18,3.281.077.811-.141,1.064-1.009,1.057-5.18-.046-10.361-.023-15.539-.023-1.254,0-1.2-.013-.883,1.171a7.205,7.205,0,0,0,11.973,2.916,1.1,1.1,0,0,1,1.479-.277C252.346,54.563,253.522,55.084,254.7,55.632ZM244.038,46.51c1.906,0,3.813-.056,5.715.024.917.038.886-.346.714-.991a6.574,6.574,0,0,0-12.892.169c-.135.584-.041.826.647.811,1.939-.044,3.878-.014,5.817-.014Z" transform="translate(-127.788 -36.15)"/><path class="c" d="M125.309,60.422a12.5,12.5,0,0,1-8.3-3.1c-.906-.721-.908-.955-.144-1.786.621-.674,1.131-1.442,1.726-2.138.492-.577.632-.278.924.026a9.323,9.323,0,0,0,4.286,2.59,6.241,6.241,0,0,0,5.4-.631c1.155-.761,1.6-3.143-.209-3.949-2.148-.958-4.425-1.532-6.628-2.322s-4.2-1.921-4.77-4.457c-.833-3.75.594-6.373,4.108-7.658,4.479-1.645,8.708-.68,12.489,2.229.537.413.689.762.176,1.327-.559.613-1.033,1.3-1.537,1.964-.665.875-.819.862-1.671.09A7.506,7.506,0,0,0,125,40.5a3.148,3.148,0,0,0-2.362,1.091,2.019,2.019,0,0,0,1.024,3.3c1.77.691,3.6,1.237,5.4,1.844a9.26,9.26,0,0,1,4.635,2.734,6.435,6.435,0,0,1-2.153,9.693A11.228,11.228,0,0,1,125.309,60.422Z" transform="translate(-116.306 -36.145)"/><g transform="translate(18.772)"><path class="c" d="M172.057,36.594a1.131,1.131,0,0,0-.911-.45h-2.533a1.14,1.14,0,0,0-1.1.858l-4.36,17.029-5.676-17.108a1.139,1.139,0,0,0-1.081-.782h-3.224a1.138,1.138,0,0,0-1.081.785l-5.635,17.129L142.133,37a1.14,1.14,0,0,0-1.106-.86h-2.744a1.137,1.137,0,0,0-1.1,1.449l6.267,22.055a1.144,1.144,0,0,0,1.1.828h3.379a1.143,1.143,0,0,0,1.081-.773l5.708-16.787,5.67,16.785a1.14,1.14,0,0,0,1.081.776H164.8a1.147,1.147,0,0,0,1.1-.825l6.347-22.055A1.13,1.13,0,0,0,172.057,36.594Z" transform="translate(-137.142 -36.14)"/><path class="c" d="M219.819,38.786a8.783,8.783,0,0,1,3.265,4.5v-5.9h3.834V60.9a11.747,11.747,0,0,1-1.351,5.688,9.691,9.691,0,0,1-3.792,3.874,11.3,11.3,0,0,1-5.687,1.39A12.219,12.219,0,0,1,208.46,69.6a9.946,9.946,0,0,1-3.75-6.088H208.5a6.568,6.568,0,0,0,2.549,3.644,8.156,8.156,0,0,0,4.824,1.327,7.077,7.077,0,0,0,5.162-2,7.461,7.461,0,0,0,2.044-5.586V54.632a8.783,8.783,0,0,1-3.265,4.5,9.5,9.5,0,0,1-5.71,1.686,10.479,10.479,0,0,1-5.478-1.433,9.917,9.917,0,0,1-3.771-4.109,13.666,13.666,0,0,1-1.37-6.3,13.8,13.8,0,0,1,1.37-6.32,9.9,9.9,0,0,1,3.771-4.129,10.5,10.5,0,0,1,5.478-1.433A9.5,9.5,0,0,1,219.819,38.786ZM209.7,44.1a8.007,8.007,0,0,0-1.59,5.271,8,8,0,0,0,1.59,5.27,5.222,5.222,0,0,0,4.235,1.912,5.346,5.346,0,0,0,3.04-.893,5.966,5.966,0,0,0,2.094-2.523,8.851,8.851,0,0,0,.757-3.77,8.979,8.979,0,0,0-.757-3.784,5.837,5.837,0,0,0-2.094-2.523,5.435,5.435,0,0,0-3.04-.876A5.237,5.237,0,0,0,209.7,44.1Z" transform="translate(-143.711 -36.235)"/></g></g><g transform="translate(262.566 33.214)"><path class="b" d="M297.676,55.6h8.393a1.882,1.882,0,0,1,1.882,1.882v.781a1.882,1.882,0,0,1-1.882,1.881H293.3a1.881,1.881,0,0,1-1.881-1.881V56.205a1.091,1.091,0,0,1,.2-.622l9.914-14.209h-8.1a1.882,1.882,0,0,1-1.882-1.881v-.749a1.882,1.882,0,0,1,1.882-1.881H306a1.881,1.881,0,0,1,1.881,1.881v1.8a1.881,1.881,0,0,1-.344,1.086Z" transform="translate(-291.42 -36.863)"/></g></g></svg>